<?xml version="1.0" encoding="utf-8"?>
<!-- Generator: Adobe Illustrator 22.1.0, SVG Export Plug-In . SVG Version: 6.00 Build 0)  -->
<svg version="1.1" id="Слой_1" xmlns="http://www.w3.org/2000/svg" xmlns:xlink="http://www.w3.org/1999/xlink" x="0px" y="0px"
	 viewBox="0 0 512 512" style="enable-background:new 0 0 512 512;" xml:space="preserve">
<style type="text/css">
	.st0{fill:#DE7E20;stroke:#1C1C1C;stroke-width:4;stroke-miterlimit:10;}
	.st1{font-family:'VisbyRoundCF-Heavy';}
	.st2{font-size:141.7804px;}
	.st3{fill:#DE7E20;stroke:#1C1C1C;stroke-width:17;stroke-miterlimit:10;}
</style>
<text transform="matrix(1 0 0 1 406.9209 113.5117)"><tspan x="0" y="0" class="st0 st1 st2">b</tspan><tspan x="0.3" y="128.8" class="st0 st1 st2">h</tspan><tspan x="11.8" y="257.7" class="st0 st1 st2">r</tspan><tspan x="6.5" y="386.5" class="st0 st1 st2">c</tspan></text>
<g>
	<path class="st3" d="M391,464.5c-26.5,9.5-79,25.2-140.9,25.2c-69.4,0-126.6-17.7-171.5-60.6c-39.5-38.1-64-99.4-64-170.8
		C15.3,121.5,109.2,21.4,263,21.4c53.1,0,94.6,11.6,114.4,21.1l-14.3,48.3C338.6,79.9,308,71.1,261.7,71.1
		C150,71.1,77.2,140.5,77.2,255.5c0,116.4,70.1,185.1,177,185.1c38.8,0,65.3-5.4,79-12.3V291.6h-93.3V244H391V464.5z"/>
</g>
</svg>
